<svg width="109" height="28" viewBox="0 0 109 28" fill="none" xmlns="http://www.w3.org/2000/svg">
<path d="M0.52 27V1.44H4.912V12.852L15.388 1.44H20.644L9.484 13.428L21.94 27H16.108L4.912 14.508V27H0.52ZM29.7928 27.54C28.8328 27.54 27.9448 27.396 27.1288 27.108C26.3368 26.82 25.6408 26.412 25.0408 25.884C24.4408 25.356 23.9728 24.732 23.6368 24.012C23.3008 23.292 23.1328 22.5 23.1328 21.636C23.1328 20.436 23.4448 19.392 24.0688 18.504C24.7168 17.592 25.6168 16.884 26.7688 16.38C27.9208 15.876 29.2648 15.624 30.8008 15.624C31.6408 15.624 32.4448 15.708 33.2128 15.876C33.9808 16.02 34.7128 16.236 35.4088 16.524V15.336C35.4088 14.496 35.2528 13.764 34.9408 13.14C34.6288 12.492 34.1848 11.988 33.6088 11.628C33.0328 11.268 32.3368 11.088 31.5208 11.088C30.6568 11.088 29.8768 11.316 29.1808 11.772C28.4848 12.228 27.9688 12.864 27.6328 13.68L23.8168 12.816C24.1048 11.76 24.6208 10.848 25.3648 10.08C26.1328 9.312 27.0448 8.712 28.1008 8.28C29.1808 7.848 30.3448 7.632 31.5928 7.632C32.7688 7.632 33.8368 7.824 34.7968 8.208C35.7808 8.592 36.6208 9.132 37.3168 9.828C38.0128 10.524 38.5528 11.352 38.9368 12.312C39.3208 13.272 39.5128 14.34 39.5128 15.516V27H35.7328L35.5888 24.516C35.0848 25.428 34.3288 26.16 33.3208 26.712C32.3128 27.264 31.1368 27.54 29.7928 27.54ZM27.3088 21.456C27.3088 21.984 27.4528 22.464 27.7408 22.896C28.0288 23.304 28.4248 23.628 28.9288 23.868C29.4568 24.108 30.0688 24.228 30.7648 24.228C31.6528 24.228 32.4448 24.036 33.1408 23.652C33.8368 23.268 34.3888 22.752 34.7968 22.104C35.2048 21.432 35.4088 20.676 35.4088 19.836V19.404C34.7848 19.14 34.1368 18.936 33.4648 18.792C32.8168 18.624 32.1448 18.54 31.4488 18.54C30.2008 18.54 29.1928 18.804 28.4248 19.332C27.6808 19.86 27.3088 20.568 27.3088 21.456ZM51.9224 27.54C50.6744 27.54 49.5104 27.288 48.4304 26.784C47.3744 26.28 46.4504 25.584 45.6584 24.696C44.8664 23.808 44.2424 22.764 43.7864 21.564C43.3544 20.364 43.1384 19.068 43.1384 17.676C43.1384 16.26 43.3664 14.94 43.8224 13.716C44.2784 12.492 44.9144 11.424 45.7304 10.512C46.5464 9.6 47.4944 8.892 48.5744 8.388C49.6784 7.884 50.8664 7.632 52.1384 7.632C53.3864 7.632 54.5264 7.896 55.5584 8.424C56.5904 8.952 57.4424 9.696 58.1144 10.656V0.215999H62.2544V27H58.4744L58.2944 23.976C57.6224 25.08 56.7344 25.956 55.6304 26.604C54.5264 27.228 53.2904 27.54 51.9224 27.54ZM52.7864 23.796C53.8184 23.796 54.7424 23.532 55.5584 23.004C56.3744 22.452 57.0104 21.708 57.4664 20.772C57.9464 19.836 58.1864 18.78 58.1864 17.604C58.1864 16.404 57.9464 15.336 57.4664 14.4C57.0104 13.464 56.3744 12.732 55.5584 12.204C54.7424 11.652 53.8184 11.376 52.7864 11.376C51.7544 11.376 50.8304 11.652 50.0144 12.204C49.1984 12.732 48.5504 13.464 48.0704 14.4C47.6144 15.336 47.3864 16.404 47.3864 17.604C47.3864 18.78 47.6144 19.836 48.0704 20.772C48.5504 21.708 49.1984 22.452 50.0144 23.004C50.8304 23.532 51.7544 23.796 52.7864 23.796ZM75.4605 27.54C74.0685 27.54 72.7845 27.3 71.6085 26.82C70.4565 26.316 69.4485 25.62 68.5845 24.732C67.7205 23.844 67.0485 22.8 66.5685 21.6C66.1125 20.376 65.8845 19.032 65.8845 17.568C65.8845 16.152 66.1125 14.844 66.5685 13.644C67.0485 12.444 67.6965 11.4 68.5125 10.512C69.3525 9.6 70.3365 8.892 71.4645 8.388C72.5925 7.884 73.8165 7.632 75.1365 7.632C76.4565 7.632 77.6565 7.872 78.7365 8.352C79.8405 8.808 80.7885 9.468 81.5805 10.332C82.3965 11.196 83.0205 12.228 83.4525 13.428C83.8845 14.604 84.1005 15.912 84.1005 17.352V18.576H70.1685C70.2885 19.68 70.5765 20.64 71.0325 21.456C71.5125 22.248 72.1245 22.86 72.8685 23.292C73.6125 23.724 74.4765 23.94 75.4605 23.94C77.4285 23.94 78.9645 23.064 80.0685 21.312L83.7045 22.716C83.2725 23.7 82.6365 24.564 81.7965 25.308C80.9805 26.028 80.0205 26.58 78.9165 26.964C77.8365 27.348 76.6845 27.54 75.4605 27.54ZM75.1365 10.98C74.2965 10.98 73.5405 11.172 72.8685 11.556C72.2205 11.94 71.6685 12.48 71.2125 13.176C70.7565 13.872 70.4445 14.688 70.2765 15.624H79.7805C79.6365 14.688 79.3605 13.872 78.9525 13.176C78.5445 12.48 78.0045 11.94 77.3325 11.556C76.6845 11.172 75.9525 10.98 75.1365 10.98ZM95.2658 27.54C93.3698 27.54 91.8818 27 90.8018 25.92C89.7218 24.816 89.1818 23.244 89.1818 21.204V11.52H85.8698V8.172H89.1818V1.8H93.3218V8.172H98.7938V11.52H93.3218V20.772C93.3218 21.78 93.5258 22.56 93.9338 23.112C94.3658 23.64 94.9898 23.904 95.8058 23.904C96.2378 23.904 96.7058 23.844 97.2098 23.724C97.7138 23.58 98.1818 23.388 98.6138 23.148L99.5498 26.28C98.9978 26.664 98.3498 26.964 97.6058 27.18C96.8858 27.42 96.1058 27.54 95.2658 27.54ZM105.51 27.144C105.006 27.144 104.55 27.024 104.142 26.784C103.734 26.544 103.398 26.22 103.134 25.812C102.894 25.38 102.774 24.912 102.774 24.408C102.774 23.904 102.894 23.448 103.134 23.04C103.398 22.608 103.734 22.272 104.142 22.032C104.55 21.792 105.006 21.672 105.51 21.672C106.014 21.672 106.47 21.792 106.878 22.032C107.286 22.272 107.61 22.608 107.85 23.04C108.114 23.448 108.246 23.904 108.246 24.408C108.246 24.912 108.114 25.38 107.85 25.812C107.61 26.22 107.286 26.544 106.878 26.784C106.47 27.024 106.014 27.144 105.51 27.144Z" fill="white"/>
</svg>
